<?xml version="1.0" encoding="UTF-8" standalone="no"?>
<!DOCTYPE svg PUBLIC "-//W3C//DTD SVG 1.1//EN" "http://www.w3.org/Graphics/SVG/1.1/DTD/svg11.dtd">
<!-- Created with Vectornator (http://vectornator.io/) -->
<svg height="100%" stroke-miterlimit="10" style="fill-rule:nonzero;clip-rule:evenodd;stroke-linecap:round;stroke-linejoin:round;" version="1.1" viewBox="0 0 1024 1024" width="100%" xml:space="preserve" xmlns="http://www.w3.org/2000/svg" xmlns:vectornator="http://vectornator.io" xmlns:xlink="http://www.w3.org/1999/xlink">
<defs/>
<clipPath id="ArtboardFrame">
<rect height="1024" width="1024" x="0" y="0"/>
</clipPath>
<g clip-path="url(#ArtboardFrame)" id="Layer-1" vectornator:layerName="Layer 1">
<path d="M524.719 226.031C473.584 226.031 424.805 234.162 380.188 248.875C379.545 249.127 378.839 249.316 378.156 249.531C333.494 264.501 293.062 286.097 258.719 312.812C261.594 312.987 264.307 314.52 265.688 317.281C267.753 321.412 266.068 326.435 261.938 328.5C258.949 329.994 256.246 330.795 253.5 330.719C249.711 330.614 246.448 328.77 244.406 325.688C244.234 325.428 244.149 325.186 244 324.938C179.667 380.713 140.219 455.61 140.219 538.031C140.219 710.344 312.365 850.031 524.719 850.031C737.072 850.031 909.219 710.344 909.219 538.031C909.219 365.718 737.072 226.031 524.719 226.031Z" fill="#ef9f46" fill-rule="nonzero" opacity="1" stroke="#ef9f46" stroke-linecap="butt" stroke-linejoin="round" stroke-opacity="0" stroke-width="13.4747"/>
<path d="M767.21 308.025C786.109 270.225 802.21 232.06 802.21 189.025C802.21 184.585 802.92 149.499 802.21 149.025C800.059 147.591 792.878 147.358 790.21 148.025C784.564 149.436 778.858 154.539 774.21 158.025C770.805 160.579 765.354 162.453 762.21 164.025C755.819 167.22 749.99 174.69 744.21 179.025C728.004 191.179 711.603 205.631 697.21 220.025C689.499 227.735 677.939 249.66 671.21 253.025" fill="none" opacity="1" stroke="#ef9f46" stroke-linecap="round" stroke-linejoin="round" stroke-width="13.4747"/>
<path d="M253.052 295.25C252.649 289.313 251.452 283.632 249.21 278.025C240.401 256.002 235.92 230.867 230.21 208.025C229.24 204.146 224.327 169.348 225.21 168.025C227.287 164.908 238.497 167.347 241.21 168.025C252.915 170.951 272.159 177.974 281.21 187.025C289.442 195.257 299.734 202.549 308.21 211.025C314.829 217.645 320.757 223.754 326.21 231.025C333.552 240.815 334.861 256.351 346.21 262.025" fill="none" opacity="1" stroke="#ef9f46" stroke-linecap="round" stroke-linejoin="round" stroke-width="13.4747"/>
<path d="M587.21 470.025C590.663 463.118 590.758 450.477 596.21 445.025C604.66 436.574 622.669 436.66 633.21 434.025C643.653 431.414 654.761 431.637 665.21 429.025C674.935 426.594 686.484 431.456 696.21 429.025C706.78 426.382 721.353 425.025 732.21 425.025" fill="none" opacity="1" stroke="#000000" stroke-linecap="round" stroke-linejoin="round" stroke-width="13.4747"/>
<path d="M591.21 452.025C594.969 453.905 601.086 453.902 604.21 457.025C609.721 462.537 611.5 469.992 618.21 475.025C627.797 482.215 673.449 487.215 686.21 484.025C701.509 480.2 715.54 468.363 722.21 455.025C723.773 451.899 734.765 435.025 729.21 435.025" fill="none" opacity="1" stroke="#000000" stroke-linecap="round" stroke-linejoin="round" stroke-width="13.4747"/>
<path d="M656.21 440.025C652.026 443.453 660.589 460.772 663.21 459.025C666.794 456.635 668.708 438.025 662.21 438.025C656.984 438.025 661.308 455.325 665.21 454.025C667.523 453.254 665.859 432.12 656.21 440.025Z" fill="none" opacity="1" stroke="#000000" stroke-linecap="round" stroke-linejoin="round" stroke-width="13.4747"/>
<path d="M423.21 439.025C412.302 433.571 399.668 436.889 388.21 434.025C368.838 429.182 342.247 432.025 322.21 432.025C312.798 432.025 303.136 432.793 294.21 435.025C293.787 435.131 290.21 434.608 290.21 436.025C290.21 436.183 302.762 437.025 304.21 437.025" fill="none" opacity="1" stroke="#000000" stroke-linecap="round" stroke-linejoin="round" stroke-width="13.4747"/>
<path d="M414.21 440.025L416.21 441.025L418.21 445.025L419.21 447.025L419.21 449.025L419.21 451.025L419.21 453.025L420.21 455.025L420.21 457.025L420.21 459.025" fill="none" opacity="1" stroke="#000000" stroke-linecap="round" stroke-linejoin="round" stroke-width="13.4747"/>
<path d="M308.21 439.025C312.565 447.736 306.496 459.74 316.21 467.025C318.932 469.066 322.163 467.415 325.21 468.025C330.018 468.986 334.435 472.831 339.21 474.025C354.461 477.838 377.132 472.083 389.21 463.025C395.758 458.113 408.21 455.183 408.21 445.025" fill="none" opacity="1" stroke="#000000" stroke-linecap="round" stroke-linejoin="round" stroke-width="13.4747"/>
<path d="M346.21 439.025C343.44 435.402 338.851 443.666 342.21 447.025C346.62 451.435 355.238 442.568 352.21 438.025C347.273 430.62 342.835 444.462 345.21 448.025C347.915 452.083 350.873 440.688 349.21 439.025C347.233 437.049 344.713 450.779 346.21 453.025C350.159 458.949 358.556 445.718 356.21 441.025C352.274 433.153 350.996 445.285 346.21 439.025Z" fill="none" opacity="1" stroke="#000000" stroke-linecap="round" stroke-linejoin="round" stroke-width="13.4747"/>
<path d="M640.21 373.025C641.888 369.669 634.563 379.887 632.21 383.025C626.704 390.365 618.619 395.616 612.21 402.025C610.067 404.168 598.96 415.275 603.21 411.025" fill="none" opacity="1" stroke="#000000" stroke-linecap="round" stroke-linejoin="round" stroke-width="13.4747"/>
<path d="M372.21 384.025C372.21 368.245 404.09 395.533 408.21 401.025C410.583 404.189 411.507 408.173 415.21 410.025" fill="none" opacity="1" stroke="#000000" stroke-linecap="round" stroke-linejoin="round" stroke-width="13.4747"/>
<path d="M470.71 648.025C474.493 644.49 490.055 645.025 495.21 645.025C512.803 645.025 529.663 644.025 547.21 644.025C552.487 644.025 567.631 649.893 562.21 658.025C557.448 665.168 541.58 661.655 536.21 667.025C530.408 672.826 534.719 683.515 529.21 689.025C522.341 695.893 504.231 699.53 494.21 697.025C477.531 692.855 487.423 679.238 478.21 670.025C474.596 666.411 464.761 670.301 460.21 668.025C439.492 657.666 463.195 655.047 470.71 648.025Z" fill="none" opacity="1" stroke="#000000" stroke-linecap="round" stroke-linejoin="round" stroke-width="13.4747"/>
<path d="M452.21 455.025C447.391 464.662 453.792 478.694 451.21 489.025C445.329 512.546 452.11 539.424 446.21 563.025C437.342 598.494 436.307 640.928 408.21 669.025C395.713 681.522 381.413 689.821 369.21 702.025C351.843 719.391 336.657 736.263 342.21 764.025C344.341 774.682 345.646 785.461 353.21 793.025C355.473 795.288 360.004 803.437 362.21 799.025" fill="none" opacity="1" stroke="#000000" stroke-linecap="round" stroke-linejoin="round" stroke-width="13.4747"/>
<path d="M556.21 435.025C551.971 435.025 548.662 450.667 547.21 455.025C541.462 472.268 536.517 498.563 540.21 517.025C544.6 538.974 556.32 552.19 568.21 570.025C583.399 592.809 590.22 619.709 604.21 643.025C607.38 648.308 610.923 658.738 615.21 663.025C618.942 666.757 622.686 667.326 626.21 672.025C630.203 677.349 631.372 683.35 634.21 689.025C639.686 699.977 648.096 709.836 654.21 720.025C664.562 737.279 672.384 752.721 677.21 772.025C678.478 777.098 682.559 784.628 681.21 790.025C679.645 796.283 662.333 820.271 659.21 814.025" fill="none" opacity="1" stroke="#000000" stroke-linecap="round" stroke-linejoin="round" stroke-width="13.4747"/>
<path d="M506.21 706.025C506.21 702.147 505.54 716.346 506.21 719.025C509.056 730.409 505.901 741.26 503.21 752.025C502.439 755.107 499.447 767.549 501.21 764.025" fill="none" opacity="1" stroke="#000000" stroke-linecap="round" stroke-linejoin="round" stroke-width="13.4747"/>
<path d="M361.21 805.025C367.057 802.101 386.908 816.85 398.21 814.025C406.296 812.003 406.789 805.446 411.21 801.025C416.282 795.953 445.271 788.01 453.21 786.025C493.354 775.989 516.792 759.961 554.21 788.025C572.067 801.418 597.6 799.72 616.21 809.025C617.407 809.623 653.916 825.025 643.21 825.025" fill="none" opacity="1" stroke="#000000" stroke-linecap="round" stroke-linejoin="round" stroke-width="13.4747"/>
<path d="M426.21 799.025C423.471 804.502 432.622 808.95 436.21 812.025C443.731 818.472 457.64 829.382 468.21 832.025C479.57 834.865 490.836 838.182 502.21 841.025C513.504 843.848 526.916 838.201 538.21 841.025C543.521 842.353 552.613 843.424 558.21 842.025C566.491 839.955 573.156 833.565 579.21 829.025C587.957 822.464 597.005 820.434 602.21 810.025" fill="none" opacity="1" stroke="#000000" stroke-linecap="round" stroke-linejoin="round" stroke-width="13.4747"/>
<path d="M622.21 747.025C622.21 733.278 637.739 727.128 647.21 720.025C667.204 705.029 693.262 693.143 718.21 690.025C729.289 688.64 741.323 689.839 752.21 688.025C766.545 685.636 780.331 692.338 794.21 690.025C797.378 689.497 817.925 686.31 812.21 692.025" fill="none" opacity="1" stroke="#000000" stroke-linecap="round" stroke-linejoin="round" stroke-width="13.4747"/>
<path d="M635.21 775.025C655.087 755.148 703.521 744.025 731.21 744.025C741.844 744.025 752.468 743.025 763.21 743.025C765.939 743.025 782.703 745.025 776.21 745.025" fill="none" opacity="1" stroke="#000000" stroke-linecap="round" stroke-linejoin="round" stroke-width="13.4747"/>
<path d="M379.21 726.025C375.545 726.025 369.421 718.594 366.21 716.025C355.833 707.723 344.963 699.126 332.21 694.025C304.316 682.867 275.789 676.941 246.21 671.025C234.814 668.746 221.478 672.025 210.21 672.025" fill="none" opacity="1" stroke="#000000" stroke-linecap="round" stroke-linejoin="round" stroke-width="13.4747"/>
<path d="M368.21 750.025C354.014 742.927 336.229 746.528 321.21 744.025C305.739 741.446 290.675 736.118 275.21 733.025C257.946 729.572 239.471 735.92 224.21 742.025C219.479 743.917 188.502 753.441 188.21 754.025" fill="none" opacity="1" stroke="#000000" stroke-linecap="round" stroke-linejoin="round" stroke-width="13.4747"/>
<path d="M40.2241 1133.56C40.559 1132.05 40.8878 1130.54 41.2097 1129.02" fill="none" opacity="1" stroke="#ef9f46" stroke-linecap="round" stroke-linejoin="round" stroke-width="13.4747"/>
<path d="M246.96 249.045C244.436 254.092 248.795 260.182 249.901 265.714C251.019 271.304 254.694 274.97 255.785 280.422C256.97 286.352 257.258 292.691 258.726 298.562C260.418 305.331 261.237 312.006 263.139 318.663C263.803 320.987 264.525 323.228 265.1 325.527C265.35 326.53 265.349 329.199 266.08 328.468C266.547 328.002 259.362 304.246 258.236 301.994C257.827 301.176 255.697 295.159 254.314 295.621C252.442 296.244 254.329 302.768 254.804 303.955C257.644 311.054 262.362 317.926 263.629 325.527C264.609 331.405 258.241 330.753 254.314 333.371C253.737 333.756 252.843 334.842 252.843 334.842C252.843 334.842 257.576 331.089 259.707 328.959C263.033 325.632 269.107 326.571 270.002 322.095C273.363 305.29 259.004 289.232 256.765 273.559C255.821 266.947 251.486 261.006 250.392 254.438C250.02 252.21 248.972 250.232 248.431 248.065C248.189 247.1 248.385 244.234 247.94 245.123C245.588 249.828 257.413 274.333 259.216 279.442C259.393 279.943 261.753 289.737 263.629 289.737C263.841 289.737 261.245 282.434 261.177 281.893C260.42 275.836 258.602 269.815 257.255 263.753C256.817 261.78 256.34 259.814 255.785 257.87C255.684 257.519 255.294 256.524 255.294 256.889C255.294 266.795 262.753 280.339 266.57 289.247C266.689 289.524 268.671 295.621 270.002 295.621C271.109 295.621 268.333 285.103 268.041 284.344C263.791 273.295 258.942 262.453 255.785 251.006C255.181 248.818 253.792 242.331 253.333 239.73C252.927 237.426 253.16 230.919 251.862 232.866C248.98 237.189 259.842 258.394 261.668 263.263C262.467 265.394 263.625 267.414 264.119 269.636C264.261 270.275 264.773 271.597 264.119 271.597C264.044 271.597 260.298 257.696 260.197 257.38C258.588 252.322 251.144 220.92 245.979 219.629C245.478 219.504 245.416 220.588 245.489 221.1C245.715 222.682 247.168 226.649 247.45 227.964C248.501 232.868 249.322 238.059 251.372 242.672C251.611 243.21 251.826 244.406 252.353 244.143C253.624 243.507 251.527 231.938 251.372 230.905C250.304 223.785 247.723 217.42 244.999 210.804C243.978 208.326 242.224 205.591 241.567 202.96C241.408 202.326 241.567 200.999 241.567 200.999C241.567 200.999 241.445 202.968 241.567 203.941C242.153 208.631 244.348 213.318 245.979 217.668C246.397 218.782 246.518 219.995 246.96 221.1C247.21 221.726 247.237 223.7 247.45 223.061C251.936 209.604 237.154 195.612 237.154 181.879C237.154 181.268 236.551 177.692 236.664 177.466C237.335 176.125 238.966 180.259 239.115 180.408C241.143 182.436 244.356 184.989 246.96 186.291C253.524 189.573 263.894 195.58 267.551 201.98C268.064 202.877 273.787 214.373 274.905 213.256C275.979 212.182 270.687 204.854 270.002 203.941C264.564 196.69 259.579 189.105 253.333 182.859C252.287 181.813 256.266 183.349 257.746 183.349C259.226 183.349 260.835 183.668 262.158 184.33C267.145 186.823 273.364 189.956 276.866 194.626C279.728 198.442 282.582 198.871 285.691 201.98C290.119 206.408 293.921 212.171 298.438 216.688C299.871 218.121 302.263 217.394 303.831 218.649C308.681 222.529 319.747 235.371 322.951 240.711C325.244 244.531 331.248 251.346 332.266 255.419C332.464 256.211 332.997 257.505 332.266 257.87C330.77 258.618 327.764 251.646 327.364 251.006C323.078 244.149 318.607 238.383 313.146 232.376C309.411 228.268 306.928 223.325 303.34 219.139C299.456 214.607 291.932 209.97 287.162 206.392C283.767 203.846 279.045 206.547 275.395 203.941C270.599 200.515 267.79 194.58 263.139 190.703C260.244 188.291 247.992 176.434 243.528 180.898C239.783 184.643 244.71 191.626 246.96 194.626C257.162 208.229 265.293 220.996 272.944 236.298C275.342 241.094 278.596 245.305 281.769 249.535C281.988 249.828 282.422 250.189 282.259 250.516C281.992 251.05 280.364 250.066 280.298 250.026C277.171 248.149 275.507 243.496 274.415 240.22C270.835 229.481 267.587 218.653 264.119 207.863C262.615 203.185 259.94 197.358 259.707 198.057C258.936 200.369 262.267 208.215 262.648 210.314C265.035 223.439 267.435 236.541 270.493 249.535C272.025 256.05 273.224 264.3 276.866 270.127C277.299 270.82 277.759 272.666 278.337 272.088C279.313 271.111 270.638 249.063 270.002 247.084C267.444 239.126 264.813 230.862 263.629 222.571C263.233 219.802 262.648 214.236 262.648 214.236C262.648 214.236 263.378 218.475 263.629 220.61C264.227 225.694 264.957 230.741 265.59 235.808C267.327 249.702 270.422 262.93 273.924 276.5C275.303 281.841 276.764 287.266 277.847 292.679C278.142 294.156 278.351 298.521 278.827 297.091C280.994 290.591 274.819 276.847 273.434 270.617C272.641 267.05 272.108 263.43 271.473 259.831C271.211 258.347 270.493 253.912 270.493 255.419C270.493 269.848 268.909 282.838 271.473 297.582C271.969 300.435 271.515 307.522 273.924 305.916C276.197 304.401 275.01 295.657 274.905 293.659C274.349 283.091 272.554 271.609 270.493 261.302C270.139 259.532 270.002 264.89 270.002 266.695C270.002 271.524 269.853 273.068 270.493 277.971C271.698 287.213 273.311 296.793 276.866 305.426C277.677 307.396 278.525 312.001 280.298 310.819C283.117 308.939 280.259 293.389 279.808 291.208C276.677 276.076 271.406 261.86 267.061 247.084C265.35 241.266 263.964 235.354 262.648 229.434C262.587 229.158 261.515 220.686 259.707 221.59C258.711 222.088 260.523 230.631 260.687 231.396C263.051 242.429 267.694 252.856 271.963 263.263C273.242 266.38 274.62 269.456 275.885 272.578C277.417 276.356 279.52 283.144 282.259 286.796C282.569 287.209 283.364 287.651 283.73 287.286C287.479 283.536 283.3 272.788 282.259 269.146C277.822 253.617 271.663 238.705 266.08 223.551C265.062 220.787 264.036 218.023 263.139 215.217C262.631 213.629 260.491 210.314 262.158 210.314C264.713 210.314 268.673 224.955 269.022 226.003C275.753 246.197 283.042 266.208 290.103 286.305C292.174 292.2 293.941 299.387 296.967 304.936C297.423 305.772 298.992 307.259 299.418 306.406C301.76 301.723 296.177 288.391 295.006 284.344C291.071 270.752 286.887 257.343 281.769 244.143C279.542 238.399 277.214 232.695 274.905 226.983C273.241 222.867 270.294 217.284 270.002 218.158C268.857 221.595 274.853 233.575 275.885 236.298C280.946 249.64 286.855 262.663 293.045 275.52C294.422 278.379 297.927 286.305 298.438 286.305C300.749 286.305 298.041 281.678 297.457 279.442C296.896 277.291 296.116 275.203 295.496 273.068C291.373 258.866 286.535 244.906 281.769 230.905C280.536 227.284 279.164 223.711 277.847 220.119C277.316 218.672 276.485 215.107 275.395 216.197C274.632 216.961 282.835 235.365 283.239 236.298C289.826 251.497 297.054 266.259 304.811 280.913C305.681 282.556 308.344 291.208 310.694 291.208C314.49 291.208 307.256 272.453 306.772 271.107C301.303 255.87 294.114 241.086 286.181 226.983C284.889 224.686 284.122 221.983 282.259 220.119C281.637 219.497 282.69 221.884 283.239 222.571C284.181 223.747 285.323 224.764 286.181 226.003C289.03 230.118 289.029 230.915 291.574 235.808C297.959 248.088 304.511 260.211 310.694 272.578C313.073 277.335 312.738 277.271 314.617 281.403C314.679 281.541 317.415 286.275 318.048 285.325C319.202 283.595 314.982 274.546 314.617 273.559C310.421 262.23 305.67 251.093 300.399 240.22C298.058 235.391 295.155 228.944 295.496 228.944C296.924 228.944 301.753 235.911 302.36 236.789C309.246 246.735 314.711 258.087 319.519 269.146C320.744 271.962 322.068 274.734 323.441 277.481C324.218 279.034 325.91 282.848 326.873 281.403C328.46 279.023 315.083 250.454 313.636 246.594C312.163 242.666 309.954 236.423 310.204 236.298C311.809 235.496 317.326 247.051 317.558 247.574C321.453 256.338 325.179 265.173 328.834 274.049C328.947 274.321 330.939 280.422 332.266 280.422C333.931 280.422 329.366 268.763 329.325 268.656C326.335 260.807 322.867 251.969 321.48 243.652C321.346 242.846 320.8 241.654 321.48 241.201C322.644 240.425 327.09 250.91 327.364 251.497C328.887 254.761 339.357 281.026 340.11 281.403C340.863 281.779 337.82 271.008 337.659 270.617C335.316 264.926 330.305 256.318 330.305 250.026C330.305 249.563 331.048 250.61 331.286 251.006C332.134 252.421 332.666 254.849 333.247 256.399C335.555 262.554 337.85 268.941 341.581 274.539C341.838 274.924 342.177 275.776 342.562 275.52C344.664 274.118 340.724 265.39 340.11 263.753C339.761 262.822 339.62 259.818 339.62 260.812C339.62 261.865 341.218 267.058 340.601 267.675C340.37 267.906 339.882 267.871 339.62 267.675C334.676 263.967 331.57 255.585 328.344 250.516C320.723 238.54 308.263 229.152 296.477 222.08C294.236 220.736 280.125 207.459 279.317 207.863C278.341 208.351 282.526 214.771 282.749 215.217C286.811 223.34 291.239 231.211 294.516 239.73C295.679 242.756 296.754 245.392 297.457 248.555C297.778 250 298.994 254.014 297.948 252.967C296.073 251.093 289.69 234.157 284.22 238.259C279.84 241.544 285.434 254.159 286.671 257.87C287.389 260.024 288.498 265.359 290.103 263.753C292.077 261.779 290.594 252.359 290.594 250.026C290.594 249.725 290.341 241.201 290.103 241.201C289.304 241.201 290.844 262.783 292.064 265.224" fill="none" opacity="1" stroke="#ef9f46" stroke-linecap="round" stroke-linejoin="round" stroke-width="13.4747"/>
<path d="M704.379 227.473C704.744 226.377 707.148 223.911 706.83 225.022C703.403 237.018 687.693 244.193 683.788 255.909C683.238 257.557 686.153 253.358 687.22 251.987C688.725 250.052 690.137 248.047 691.632 246.104C694.568 242.287 697.538 238.726 700.947 235.318C703.692 232.573 703.729 232.752 705.85 229.925C706.203 229.453 707.321 228.781 706.83 228.454C701.237 224.725 685.082 247.63 682.807 251.497C680.688 255.1 678.438 258.608 676.434 262.282C675.909 263.245 673.867 265.224 674.963 265.224C677.288 265.224 683.841 257.238 685.258 255.909C696.757 245.129 705.779 231.974 717.126 221.1C720.389 217.973 723.99 215.217 727.421 212.275C728.662 211.212 732.074 207.872 731.344 209.334C728.61 214.801 720.531 220.504 716.636 225.512C709.383 234.837 702.896 244.989 696.535 254.928C696.185 255.474 686.942 268.656 689.671 268.656C691.991 268.656 700.329 257.682 701.437 256.399C710.761 245.604 721.332 232.002 728.402 219.629C729.099 218.409 725.964 221.086 724.97 222.08C723.459 223.592 719.685 228.448 718.597 229.925C711.429 239.653 706.266 250.282 700.457 260.812C698.371 264.592 696.2 268.325 694.083 272.088C693.092 273.85 690.879 279.011 692.613 277.971C703.697 271.32 717.037 246.237 723.99 235.808C726.73 231.697 729.584 227.662 732.324 223.551C732.527 223.247 733.18 222.571 732.814 222.571C729.621 222.571 725.244 230.814 723.99 232.866C718.41 241.997 714.773 251.474 710.752 261.302C710.468 261.997 703.363 274.504 703.889 275.029C704.379 275.52 704.926 274.1 705.359 273.559C708.466 269.675 711.429 265.434 714.184 261.302C720.318 252.101 725.31 242.413 730.853 232.866C732.629 229.809 733.383 225.16 736.737 224.042C738.545 223.439 734.938 227.42 733.795 228.944C731.32 232.244 729.03 235.689 726.931 239.24C720.844 249.541 717.535 260.75 712.713 271.597C712.375 272.359 707.297 280.897 708.791 281.893C710.715 283.176 719.084 271.242 719.577 270.617C728.676 259.092 736.074 245.468 742.62 232.376C743.088 231.44 741.297 233.998 740.659 234.827C739.662 236.123 738.698 237.442 737.717 238.75C736.737 240.057 735.768 241.374 734.775 242.672C727.548 252.122 723.567 263.587 719.087 274.539C718.892 275.016 713.77 287.983 715.165 287.286C722.462 283.637 731.6 261.451 735.756 254.438C738.36 250.044 742.481 243.093 743.6 243.652C744.143 243.924 738.87 253.151 738.698 253.458C734.483 260.95 730.874 269.1 727.421 276.99C726.448 279.216 722.797 282.768 724.97 283.854C725.432 284.085 726.076 283.729 726.441 283.364C733.027 276.778 737.437 266.301 742.129 258.36C744.514 254.325 744.58 253.295 747.032 250.026C747.309 249.656 748.219 248.632 748.013 249.045C741.577 261.917 735.26 274.553 729.383 287.776C728.98 288.683 724.079 299.632 724.48 300.033C725.588 301.141 733.86 289.364 734.285 288.757C742.502 277.018 746.789 259.584 756.837 249.535C757.718 248.655 755.971 251.879 755.367 252.967C754.834 253.926 754.386 254.928 753.896 255.909C752.425 258.851 750.954 261.792 749.483 264.734C744.838 274.025 739.424 283.174 735.266 292.679C734.456 294.531 732.366 297.133 733.795 298.562C735.306 300.073 742.376 288.175 742.62 287.776C747.255 280.191 751.452 272.442 755.857 264.734C757.206 262.372 757.549 257.87 760.269 257.87C760.312 257.87 755.059 267.365 754.876 267.675C750.608 274.931 746.269 283.201 743.6 291.208C743.032 292.914 741.931 297.269 743.6 296.601C753.679 292.57 759.571 266.413 767.133 258.851C768.065 257.919 765.879 261.171 765.172 262.282C761.855 267.495 764.494 262.888 761.25 268.656C756.923 276.348 752.946 284.357 749.974 292.679C749.905 292.873 747.41 301.303 748.013 301.504C750.767 302.422 763.382 279.472 764.682 276.99C766.32 273.863 767.346 271.8 768.604 268.656C768.796 268.176 769.584 267.022 769.094 267.185C764.775 268.625 755.829 290.943 753.896 295.13C753.825 295.283 750.676 301.225 750.954 301.504C751.658 302.207 754.897 296.601 755.367 296.601C756.2 296.601 755.066 298.789 755.857 299.052C756.416 299.239 756.96 298.532 757.328 298.072C760.759 293.783 762.961 286.076 764.682 280.913C768.549 269.31 775.897 259.094 778.9 247.084C781.589 236.325 780.003 224.284 781.841 213.256C782.502 209.29 784.269 188.24 781.351 186.781C779.364 185.788 776.025 192.611 775.468 193.645C771.343 201.305 766.834 208.761 762.23 216.197C759.517 220.58 756.49 224.342 753.406 228.454C752.209 230.05 747.979 233.357 749.974 233.357C752.906 233.357 758.656 222.519 759.779 220.61C764.423 212.715 767.003 204.002 770.565 195.606C772.398 191.285 776.619 184.288 777.429 179.427C777.832 177.009 773.279 182.106 771.546 183.84C768.443 186.942 767.558 188.504 765.172 192.174C759.821 200.407 755.437 209.213 750.464 217.668C749.533 219.251 747.903 221.964 746.542 223.551C745.79 224.429 743.574 227.036 744.091 226.003C745.519 223.146 748.658 221.276 750.464 218.649C756.923 209.253 761.639 198.859 765.662 188.252C768.828 179.906 770.473 176.486 769.584 176.486C760.04 176.486 750.626 200.51 746.052 207.372C743.753 210.82 741.268 213.477 738.207 216.197C736.998 217.272 733.158 219.629 734.775 219.629C741.544 219.629 755.639 194.407 757.818 189.233C758.48 187.66 760.235 185.75 759.289 184.33C758.635 183.349 757.228 185.508 756.347 186.291C752.449 189.756 748.768 193.38 745.071 197.077C741.644 200.504 723.921 219.846 724.97 224.042C725.459 225.996 732.627 219.801 732.814 219.629C735.809 216.884 755.738 195.731 748.993 191.684C744.782 189.157 725.3 212.562 722.029 216.197C720.019 218.431 715.655 222.571 715.655 222.571C715.655 222.571 717.763 221.443 718.597 220.61C720.239 218.967 721.44 216.929 723.009 215.217C727.911 209.87 732.207 204.21 736.737 198.548C737.966 197.011 739.324 195.581 740.659 194.135C741.286 193.456 742.62 191.25 742.62 192.174C742.62 193.049 728.091 208.307 725.951 210.804C725.751 211.038 722.3 216.088 723.499 216.688C726.44 218.158 743.427 205.7 746.052 203.45C748.382 201.453 751.399 199.799 751.935 196.587C751.989 196.264 752.252 195.685 751.935 195.606C748.158 194.662 741.454 201.468 739.188 203.45C729.621 211.821 720.654 221.47 712.713 231.396C712.389 231.802 703.683 241.707 707.321 243.162C713.238 245.529 723 235.815 726.931 232.866C735.603 226.362 743.8 219.471 750.954 211.295C753.302 208.612 757.389 201.305 761.25 200.018C762.8 199.502 759.354 202.685 758.308 203.941C756.094 206.598 754.329 208.353 752.425 211.295C746.433 220.555 742.17 231.273 738.698 241.691C738.008 243.76 735.685 246.523 737.227 248.065C738.367 249.205 746.293 240.96 746.542 240.711C753.049 234.203 758.682 226.325 763.701 218.649C766.157 214.893 767.996 211.724 770.075 207.863C770.594 206.898 772.458 204.313 771.546 204.921C759.139 213.192 752.987 232.055 749.974 245.613C749.89 245.991 747.088 255.274 747.522 255.419C750.278 256.337 766.638 232.874 768.114 230.415C770.409 226.59 772.588 222.685 774.487 218.649C775.082 217.385 777.354 214.726 775.958 214.726C773.649 214.726 769.926 222.627 769.094 224.042C766.948 227.69 753.272 255.866 753.896 258.36C754.36 260.217 762.217 249.732 762.721 249.045C767.111 243.059 770.93 236.642 774.977 230.415C776.016 228.817 776.888 227.115 777.919 225.512C778.361 224.825 778.812 222.974 779.39 223.551C780.239 224.401 774.328 232.793 773.997 233.357C769.803 240.486 757.989 256.275 759.779 265.224C760.781 270.232 777.22 242.881 778.409 241.691C778.826 241.275 777.756 242.672 777.429 243.162C775.995 245.312 774.386 247.344 773.016 249.535C769.57 255.05 766.794 260.746 764.191 266.695C762.709 270.082 762.625 270.018 761.74 273.559C761.538 274.367 761.431 275.196 761.25 276.01C759.282 284.865 767.876 270.379 768.604 271.107C769.269 271.773 764.619 277.691 764.191 278.461C762.527 281.458 760.618 285.402 759.779 288.757C759.616 289.411 759.289 290.718 759.289 290.718C759.289 290.718 760.287 289.094 760.76 288.267C762.586 285.07 763.728 281.341 765.172 277.971C768.075 271.197 771.724 264.511 773.507 257.38C775.638 248.853 779.263 240.729 781.351 232.376C782.239 228.823 780.356 225.12 780.861 221.59C782.597 209.433 784.292 200.538 784.292 188.252C784.292 184.052 794.298 165.064 789.685 162.758C788.688 162.26 769.915 178.117 768.114 179.918C766.548 181.483 764.696 183.811 763.701 185.801C763.308 186.588 761.934 188.646 762.721 188.252C768.096 185.564 779.563 172.881 783.802 168.641C785.04 167.403 793.401 159.538 791.646 158.836C788.906 157.74 782.188 162.75 779.88 163.739C769.392 168.233 764.414 174.543 755.857 181.388C754.22 182.698 752.642 184.044 750.954 185.31C750.143 185.919 740.976 195.029 741.149 195.116C742.219 195.651 762.082 179.861 758.799 180.408C747.853 182.232 727.155 199.794 719.577 207.372C718.934 208.016 709.293 218.17 710.752 219.629C711.646 220.523 714.239 217.45 713.694 219.629C712.763 223.353 696.433 231.971 697.515 236.298C697.909 237.872 700.775 235.441 700.947 235.318C707.74 230.466 714.673 225.853 721.538 221.1C738.525 209.34 756.236 198.767 773.016 186.781C774.747 185.545 786.596 174.525 786.744 174.525C788.385 174.525 785.063 184.82 784.783 185.801C781.787 196.285 776.673 205.494 773.997 216.197C773.349 218.789 772.381 221.043 771.546 223.551C771.119 224.83 769.36 228.076 770.565 227.473C775.468 225.022 785.057 204.659 786.744 199.038C787.099 197.855 791.819 183.364 793.117 185.31C794.995 188.127 790.713 197.941 789.685 200.509C785.26 211.572 782.187 222.805 779.88 234.337C778.893 239.27 775.476 243.613 774.487 248.555C774.192 250.031 774.197 251.586 773.507 252.967C773.18 253.621 772.199 255.582 772.526 254.928C777.392 245.196 781.426 235.168 786.254 225.512C788.106 221.807 790.815 217.903 791.646 213.746C791.841 212.771 792.137 210.804 792.137 210.804C792.137 210.804 790.582 216.856 789.195 219.629C786.651 224.717 785.396 230.107 783.312 235.318C779.882 243.893 780.078 253.812 776.448 262.282C773.76 268.556 769.702 274.304 766.643 280.422C763.935 285.839 761.553 290.941 759.289 296.601C758.773 297.891 757.597 299.669 757.328 301.013C757.164 301.831 757.427 304.054 756.837 303.465C755.487 302.114 760.331 295.926 760.76 294.64C762.931 288.127 769.367 277.046 766.153 270.617" fill="none" opacity="1" stroke="#ef9f46" stroke-linecap="round" stroke-linejoin="round" stroke-width="13.4747"/>
<path d="M255.605 322.048C253.098 317.034 254.538 309.28 253.177 303.835C252.455 300.95 249.534 298.976 248.927 295.943C242.806 265.339 233.742 235.195 227.679 204.879C226.431 198.639 219.221 170.797 221.608 166.025C222.794 163.653 230.437 166.941 231.928 167.239C234.847 167.822 238.116 166.655 241.035 167.239C248.532 168.738 257.55 177.348 263.497 181.809C272.291 188.404 284.131 189.392 292.638 195.772C300.044 201.327 314.632 211.135 319.957 218.235C328.84 230.079 334.104 242.28 340.598 255.268C342.587 259.244 346.577 262.975 348.491 266.802" fill="none" opacity="1" stroke="#000000" stroke-linecap="round" stroke-linejoin="round" stroke-width="13.4747"/>
<path d="M664.18 254.661C674.76 233.502 692.151 225.12 709.106 211.557C720.098 202.763 730.834 194.078 740.675 184.237C746.933 177.979 755.064 174.097 761.316 167.846C766.113 163.048 786.6 139.813 795.313 144.169C798.598 145.811 796.457 154.208 797.134 156.918C799.579 166.697 804.42 173.623 804.42 184.237C804.42 198.348 802.276 211.956 799.563 225.52C797.984 233.413 792.986 240.899 791.063 248.59C786.548 266.653 783.721 285.737 775.279 302.621" fill="none" opacity="1" stroke="#000000" stroke-linecap="round" stroke-linejoin="round" stroke-width="13.4747"/>
<path d="M354.562 270.445C365.521 264.965 375.323 255.365 387.952 252.839C445.578 241.314 505.762 230.989 565.224 239.483C576.246 241.058 587.701 239.486 598.614 241.304C608.399 242.935 617.947 246.348 627.755 247.982C636.245 249.397 644.851 249.549 652.646 253.446" fill="none" opacity="1" stroke="#000000" stroke-linecap="round" stroke-linejoin="round" stroke-width="13.4747"/>
<path d="M260.462 332.369C259.627 331.534 259.622 329.988 258.641 329.333C257.441 328.533 247.881 335.017 247.106 335.404C245.154 336.38 242.973 336.863 241.035 337.833C238.777 338.961 236.467 340.675 234.357 342.082C211.535 357.297 197.17 387.587 181.539 409.47C177.889 414.581 176.106 420.124 173.647 425.862C171.57 430.709 167.544 435.033 165.148 439.825C160.654 448.812 154.044 467.592 152.399 477.465C144.948 522.171 144.858 564.727 159.077 607.383C161.667 615.154 162.772 621.636 166.969 628.631C173.923 640.222 177.077 656.072 185.182 666.879C190.83 674.409 195.834 682.25 200.966 689.948C205.067 696.099 211.033 700.976 214.323 707.554C215.57 710.049 221.001 720.876 221.001 716.053" fill="none" opacity="1" stroke="#000000" stroke-linecap="round" stroke-linejoin="round" stroke-width="13.4747"/>
<path d="M221.001 721.517C219.661 718.838 222.997 724.121 224.036 725.16C227.197 728.32 230.351 731.991 233.142 735.48C239.532 743.467 252.415 750.884 261.676 755.514C273.565 761.459 284.694 769.452 296.888 775.549C299.366 776.788 300.042 779.858 302.351 781.013C309.556 784.615 318.829 787.148 326.028 792.547C331.291 796.494 337.471 803.438 343.634 805.903C348.622 807.899 352.717 808.114 357.597 811.367" fill="none" opacity="1" stroke="#000000" stroke-linecap="round" stroke-linejoin="round" stroke-width="13.4747"/>
<path d="M776.493 313.549C776.277 313.117 775.226 309.352 775.279 309.299C775.919 308.659 776.898 310.109 777.707 310.513C782.778 313.049 786.35 316.884 791.671 319.013C794.183 320.018 796.829 321.667 798.956 323.262C804.304 327.273 804.74 333.124 808.062 338.44C813.272 346.776 821.454 353.966 827.489 361.509C835.864 371.977 847.254 379.072 854.201 390.65C858.719 398.179 861.914 406.944 866.343 414.327C868.294 417.577 867.82 423.089 870.593 425.862C875.058 430.327 875.837 435.613 879.092 441.039C884.528 450.099 890.347 458.552 894.27 468.358C896.222 473.238 895.689 479.695 897.912 484.143" fill="none" opacity="1" stroke="#000000" stroke-linecap="round" stroke-linejoin="round" stroke-width="13.4747"/>
<path d="M893.056 489.607C894.493 486.732 894.27 498.496 894.27 500.534C894.27 508.711 895.484 516.905 895.484 524.818C895.484 547.661 897.548 569.136 893.056 591.599C888.362 615.068 876.604 633.001 866.343 653.522C860.877 664.454 856.55 678.493 847.523 687.52C842.209 692.834 837.462 699.114 832.953 705.126C828.391 711.209 821.408 715.458 816.561 721.517C803.781 737.493 783.94 756.648 765.565 765.835" fill="none" opacity="1" stroke="#000000" stroke-linecap="round" stroke-linejoin="round" stroke-width="13.4747"/>
<path d="M350.312 813.189C356.834 809.927 360.444 820.123 369.132 822.295C371.605 822.913 374.503 821.875 377.024 822.295C379.415 822.693 380.871 824.774 383.095 825.331C399.793 829.505 416.099 835.541 433.484 837.472C442.893 838.518 452.382 840.719 461.41 841.722C482.755 844.094 504.863 840.981 526.37 842.936C538.53 844.042 553.089 845.97 565.224 843.543C575.62 841.464 586.267 836.191 596.793 834.437C611.887 831.921 627.698 831.733 641.718 824.723" fill="none" opacity="1" stroke="#000000" stroke-linecap="round" stroke-linejoin="round" stroke-width="13.4747"/>
<path d="M771.029 767.049C762.903 767.049 756.507 775.816 750.388 780.405C746.011 783.688 740.086 784.994 735.211 787.083C723.489 792.107 711.393 796.564 699.999 802.261C690.96 806.78 680.758 816.673 670.859 818.652C656.388 821.547 638.749 826.511 625.326 833.223" fill="none" opacity="1" stroke="#000000" stroke-linecap="round" stroke-linejoin="round" stroke-width="13.4747"/>
<path d="M683 278.337C687.998 273.339 696.694 274.783 703.642 273.48" fill="none" opacity="1" stroke="#000000" stroke-linecap="round" stroke-linejoin="round" stroke-width="13.4747"/>
<path d="M708.498 285.015C711.349 279.314 726.118 279.457 732.782 278.944" fill="none" opacity="1" stroke="#000000" stroke-linecap="round" stroke-linejoin="round" stroke-width="13.4747"/>
<path d="M737.639 288.658C738.97 285.996 737.794 287.444 743.103 287.444" fill="none" opacity="1" stroke="#000000" stroke-linecap="round" stroke-linejoin="round" stroke-width="13.4747"/>
<path d="M323.6 285.622C320.034 283.84 313.835 285.622 309.637 285.622" fill="none" opacity="1" stroke="#000000" stroke-linecap="round" stroke-linejoin="round" stroke-width="13.4747"/>
<path d="M306.601 297.764C301.256 297.764 294.545 297.938 289.602 299.586" fill="none" opacity="1" stroke="#000000" stroke-linecap="round" stroke-linejoin="round" stroke-width="13.4747"/>
<path d="M289.602 312.942L280.496 312.942" fill="none" opacity="1" stroke="#000000" stroke-linecap="round" stroke-linejoin="round" stroke-width="13.4747"/>
<path d="M712.748 240.697C726.674 222.13 748.229 209.151 767.387 196.379" fill="none" opacity="1" stroke="#000000" stroke-linecap="round" stroke-linejoin="round" stroke-width="13.4747"/>
<path d="M772.243 192.737C772.851 193.141 773.978 193.227 774.065 193.951C775.224 203.614 777.247 213.455 775.886 223.092C774.757 231.092 769.815 238.067 766.78 245.554" fill="none" opacity="1" stroke="#000000" stroke-linecap="round" stroke-linejoin="round" stroke-width="13.4747"/>
<path d="M265.926 266.802C256.715 252.986 260.462 225.469 260.462 209.128" fill="none" opacity="1" stroke="#000000" stroke-linecap="round" stroke-linejoin="round" stroke-width="13.4747"/>
<path d="M261.069 202.45C258.477 201.155 266.8 199.772 269.568 200.629C275.371 202.425 280.369 206.262 285.353 209.735C296.231 217.317 299.907 230.492 313.279 235.841" fill="none" opacity="1" stroke="#000000" stroke-linecap="round" stroke-linejoin="round" stroke-width="13.4747"/>
<path d="M520.906 666.271C527.502 653.079 511.104 673.059 508.764 675.985C508.132 676.775 506.227 677.698 506.943 678.413C507.658 679.129 508.764 677.402 509.371 676.592C512.782 672.044 516.845 667.841 520.299 663.236C522.312 660.551 525.904 656.558 525.763 656.558C522.529 656.558 515.748 669.604 514.835 671.735C513.674 674.444 509.46 680.235 512.407 680.235C514.485 680.235 518.338 672.622 519.085 671.128C519.14 671.017 522.313 666.207 522.12 666.271C519.033 667.3 515.276 674.44 513.621 677.199C513.372 677.613 510.769 684.221 511.799 683.877C514.509 682.974 516.459 672.145 514.835 670.521C512.005 667.691 505.866 675.24 504.514 676.592C503.098 678.009 498.261 680.842 500.265 680.842C502.324 680.842 511.272 667.565 509.371 665.664C507.748 664.041 502.285 675.378 501.479 675.378C501.072 675.378 504.559 663.562 501.479 662.022C498.714 660.64 496.702 663.332 495.408 665.057C494.801 665.867 493.587 668.497 493.587 667.486C493.587 665.24 496.947 661.273 493.587 659.593C487.362 656.481 482.157 659.593 475.981 659.593C473.755 659.593 469.303 661.819 469.303 659.593C469.303 658.12 472.091 658.562 473.552 658.379C478.281 657.788 482.903 656.719 487.516 655.951C500.853 653.728 517.4 653.914 530.619 656.558C533.96 657.226 541.601 657.442 544.583 655.951C545.392 655.546 547.011 654.737 547.011 654.737C547.011 654.737 537.854 658.827 533.048 660.2C524.866 662.538 516.388 668.542 508.157 669.914C506.441 670.2 491.158 668.984 491.158 671.128C491.158 672.845 494.384 673.105 494.801 674.771C495.517 677.634 493.584 681.447 496.015 683.877C498.98 686.842 517.707 685.254 520.906 682.056C522.494 680.468 523.531 676.217 523.941 674.164C526.29 662.418 504.078 669.505 498.443 668.7C496.787 668.463 490.775 663.768 490.551 663.843C489.54 664.18 488.512 669.307 489.944 669.307C491.707 669.307 490.739 663.656 491.158 663.236C492.899 661.495 496 664.755 498.443 664.45C509.123 663.115 517.696 658.379 528.798 658.379C532.095 658.379 539.812 657.425 542.761 655.951C544.096 655.284 550.814 652.835 548.225 654.13" fill="none" opacity="1" stroke="#ed6d48" stroke-linecap="round" stroke-linejoin="round" stroke-width="13.4747"/>
<path d="M679.965 441.646C682.017 437.542 683.833 451.134 682.393 452.574C681.664 453.303 681.786 450.57 681.786 449.538C681.786 448.708 680.863 440.59 678.751 441.646C678.079 441.982 679.921 446.785 680.572 447.11C686.103 449.875 711.563 434.997 713.355 436.789C715.584 439.018 705.335 450.09 703.642 451.36C694.647 458.106 658.727 476.258 649.003 468.965C643.487 464.829 647.039 456.074 642.932 451.967C639.693 448.727 624.865 454.395 620.47 454.395C615.845 454.395 615.536 455.532 612.577 452.574C611.97 451.967 610.042 451.229 610.756 450.752C613.169 449.144 624.184 455.977 627.148 456.823C641.236 460.849 654.786 469.96 670.251 467.751C680.664 466.264 694.653 461.987 703.035 455.002C705.095 453.285 716.645 444.273 716.391 445.289C715.929 447.134 712.183 449.182 710.927 450.752C697.101 468.034 672.922 472.001 652.039 472.001C642.993 472.001 634.081 469.572 625.326 469.572C624.989 469.572 622.291 469.572 622.291 469.572C622.291 473.639 646.711 472.001 649.61 472.001C659.063 472.001 670.043 474.546 679.358 473.215C687.787 472.011 701.117 463.598 706.677 458.038C709.956 454.758 721.611 443.465 720.64 438.611C719.979 435.301 712.649 438.357 710.927 439.218C704.885 442.239 695.946 453.788 689.071 453.788C684.079 453.788 687.541 443.758 686.036 442.253C684.98 441.197 681.054 443.893 679.965 444.074C679.413 444.166 677.403 443.734 676.929 444.681C675.278 447.984 680.135 453.546 679.358 457.43C677.554 466.451 662.136 472.32 654.467 470.787C640.301 467.953 648.453 452.631 641.111 445.289C640.405 444.582 615.682 448.737 616.22 451.967C616.975 456.495 621.802 459.851 623.505 464.109C623.673 464.529 623.66 465.323 624.112 465.323C625.905 465.323 628.611 457.396 630.183 456.216C632.706 454.324 638.62 453.338 639.897 450.145C640.483 448.679 639.182 447.217 640.504 445.896C641.017 445.382 642.932 445.166 642.932 444.074C642.932 442.443 639.988 445.524 638.682 446.503C637.279 447.556 636.261 448.624 634.433 449.538C631.507 451.001 618.651 458.66 619.255 461.68C619.766 464.231 630.716 465.429 633.219 465.93C645.261 468.338 678.711 468.398 687.857 459.252C695.237 451.872 685.096 450.42 681.179 446.503C679.313 444.637 676.929 439.825 676.929 439.825C676.929 439.825 678.947 440.601 679.965 440.432C682.861 439.949 685.465 439.825 688.464 439.825C695.294 439.825 703.621 441.451 710.32 439.218" fill="none" opacity="1" stroke="#e94420" stroke-linecap="round" stroke-linejoin="round" stroke-width="13.4747"/>
<path d="M385.827 447.717C384.32 447.538 382.755 448.046 381.274 447.717C380.267 447.493 383.308 446.86 384.309 447.11C387.824 447.988 382.713 447.717 387.345 447.717C388.524 447.717 396.118 446.169 396.451 446.503C397.091 447.143 394.91 447.539 394.023 447.717C389.227 448.676 382.487 448.931 377.631 447.717C375.508 447.186 373.841 445.859 371.56 445.289C370.682 445.069 369.132 443.169 369.132 444.074C369.132 445.853 372.958 447.42 373.382 449.538C374.564 455.45 362.265 461.961 357.597 462.894C350.73 464.268 334.692 465.537 332.706 455.609C332.065 452.406 331.675 446.868 330.278 444.074C329.378 442.274 318.136 444.562 318.136 447.11C318.136 452.243 327.761 458.991 332.099 459.859C344.383 462.316 378.241 463.499 387.345 454.395C395.389 446.351 374.477 450.387 371.56 451.36C370.569 451.69 364.286 458.049 364.275 458.038C364.247 458.009 368.335 451.7 368.525 450.752C368.86 449.078 367.151 447.428 367.918 445.896C370.306 441.12 377.577 443.467 381.274 443.467C384.241 443.467 385.785 444.734 388.559 445.289C389.571 445.491 392.324 445.166 391.594 445.896C388.573 448.917 367.481 443.467 364.882 443.467C364.517 443.467 364.882 451.583 364.882 452.574C364.882 453.408 364.865 455.592 364.275 455.002C363.892 454.619 364.888 446.297 365.489 445.896C366.057 445.518 370.667 450.913 371.56 451.36C375.894 453.526 398.061 449.168 385.827 447.717Z" fill="none" opacity="1" stroke="#e94420" stroke-linecap="round" stroke-linejoin="round" stroke-width="13.4747"/>
<path d="M751.602 227.341C751.602 221.844 734.008 238.867 731.568 240.697C730.403 241.571 729.102 242.243 727.925 243.126C727.201 243.669 725.497 245.245 725.497 244.34C725.497 242.957 747.537 227.764 750.388 224.913C752.133 223.168 765.998 207.649 766.78 211.557C767.164 213.479 756.698 232.816 755.245 236.448C754.868 237.39 752.852 244.126 752.209 244.34C751.304 244.642 749.198 241.304 747.353 241.304C742.157 241.304 737.973 243.733 732.782 243.733C730.747 243.733 728.716 244.741 726.711 244.34C725.824 244.162 724.283 242.221 724.283 243.126C724.283 244.96 727.451 244.272 727.925 244.34C733.475 245.133 745.393 249.301 750.388 245.554C756.238 241.167 759.933 229.583 762.53 223.092C763.68 220.217 764.796 216.455 765.565 213.378C765.664 212.985 765.565 212.164 765.565 212.164C765.565 212.164 765.732 214.201 765.565 215.199C765.097 218.009 763.79 220.572 762.53 223.092C759.258 229.635 755.481 239.247 750.388 244.34C746.157 248.571 731.727 245.554 726.104 245.554C725.199 245.554 723.174 246.015 723.676 246.768C724.407 247.864 756.707 248.162 758.28 247.375" fill="none" opacity="1" stroke="#ed6d48" stroke-linecap="round" stroke-linejoin="round" stroke-width="13.4747"/>
<path d="M272.604 213.378C276.077 220.325 272.238 232.192 273.818 240.09C275.002 246.012 277.513 251.887 278.675 257.696C278.731 257.977 278.955 261.782 279.282 261.946C279.857 262.233 281.632 260.203 281.71 260.124C284.731 257.103 304.173 246.916 304.173 245.554C304.173 243.54 291.341 238.207 288.995 236.448C284.98 233.436 284.632 227.594 281.71 223.699C281.103 222.889 279.889 221.27 279.889 221.27C279.889 221.27 280.176 222.164 280.496 222.484C281.786 223.774 289.225 235.157 290.817 234.626C294.566 233.377 283.32 217.443 281.103 221.877C278.794 226.495 284.377 236.476 285.96 240.697C286.791 242.915 288.388 247.375 288.388 247.375C288.388 247.375 284.676 241.096 283.531 237.662C283.378 237.202 282.096 230.984 281.103 230.984C280.651 230.984 280.585 231.754 280.496 232.198C279.24 238.479 280.972 245.769 282.924 251.625C283.244 252.585 284.03 254.769 284.746 254.053C286.37 252.429 276.614 232.088 275.639 229.163C275.492 228.72 276.166 226.761 274.425 227.341C272.532 227.972 274.704 247.605 275.639 250.411C276.627 253.375 278.634 253.406 280.496 255.268C280.652 255.423 282.136 260.912 282.317 260.731C282.545 260.504 276.622 235.807 276.246 232.805C275.747 228.811 276.084 226.333 276.853 222.484C277.131 221.095 277.855 217.233 276.853 218.235C274.012 221.076 289.32 242.236 292.031 244.947" fill="none" opacity="1" stroke="#ed6d48" stroke-linecap="round" stroke-linejoin="round" stroke-width="13.4747"/>
<path d="M428.038 844.333C428.038 842.931 429.643 841.717 429.368 840.342C428.785 837.426 414.747 842.002 413.404 842.337C405.992 844.191 396.942 844.915 390.125 848.324C379.69 853.541 379.405 866.691 387.464 873.599C390.056 875.821 392.598 878.352 395.446 880.25C400.489 883.613 405.919 887.123 411.409 889.562C418.194 892.578 426.592 895.285 434.024 896.214C452.994 898.585 476.126 899.453 495.217 897.544C509.797 896.086 525.697 893.245 540.446 894.884C553.104 896.29 582.704 898.365 593.658 892.888C606.723 886.355 598.036 866.611 596.318 856.305C595.735 852.807 594.225 844.998 589.667 844.998" fill="none" opacity="1" stroke="#000000" stroke-linecap="round" stroke-linejoin="round" stroke-width="13.4747"/>
<path d="M381.478 850.984C381.478 846.815 360.82 853.069 355.537 852.315C341.808 850.353 346.218 836.348 339.574 833.025C334.693 830.585 323.509 834.764 319.62 837.681C319.223 837.979 318.702 838.622 318.289 838.347C316.872 837.402 315.481 831.547 313.633 829.7" fill="none" opacity="1" stroke="#000000" stroke-linecap="round" stroke-linejoin="round" stroke-width="13.4747"/>
<path d="M454.643 880.916C460.826 880.916 468.561 877.83 474.597 876.925C477.714 876.457 481.02 877.704 483.909 876.26C484.615 875.907 486.153 875.634 485.24 874.264C482.839 870.663 473.51 871.604 469.941 871.604C457.48 871.604 446.826 868.465 434.689 866.948C432.437 866.666 429.417 865.77 427.372 864.952C426.264 864.509 423.202 864.466 424.047 863.622C424.817 862.852 447.675 866.072 449.987 866.283C454.644 866.706 460.06 866.036 464.62 866.948C465.517 867.127 467.281 867.613 467.281 867.613C467.281 867.613 461.948 867.279 459.299 866.948C453.705 866.248 448.38 865.617 442.671 865.617C440.01 865.617 437.35 865.617 434.689 865.617C434.246 865.617 433.045 865.304 433.359 865.617C436.786 869.044 445.503 869.458 449.987 870.273C451.873 870.616 454.105 871.07 455.973 871.604C457.06 871.914 459.805 873.28 459.299 872.269C458.362 870.395 428.283 866.832 424.712 866.283C423.023 866.023 415.513 864.117 414.07 866.283C412.066 869.288 432.694 872.743 432.694 872.269C432.694 871.806 422.392 869.86 421.386 869.608C419.424 869.118 406.421 864.62 404.758 866.283C404.057 866.984 406.498 867.245 407.418 867.613C409.171 868.314 410.947 869.011 412.739 869.608C417.297 871.128 422.041 872.562 426.707 873.599C428.492 873.996 430.218 874.671 432.028 874.929C432.687 875.023 434.619 875.227 434.024 874.929C428.738 872.286 421.658 873.468 416.065 871.604C415.4 871.382 414.565 870.443 414.07 870.938C413.066 871.942 416.163 872.895 417.395 873.599C421.472 875.929 427.437 877.772 432.028 878.92C433.389 879.26 437.35 880.694 436.019 880.25C432.947 879.226 399.437 865.507 399.437 862.292C399.437 859.717 407.18 859.085 408.748 858.301C411.891 856.729 415.43 857.795 418.726 856.971C421.806 856.2 423.251 853.012 426.042 852.315C430.334 851.242 437.64 851.649 442.005 851.649C461.775 851.649 484.298 848.92 503.198 853.645C519.65 857.758 539.085 852.199 555.745 854.975C567.614 856.953 590.228 847.242 593.658 860.961C595.068 866.604 588.817 869.014 587.671 873.599C587.347 874.896 589.265 881.405 589.002 881.581C584.593 884.52 567.507 884.189 562.396 882.911C552.641 880.472 526.033 879.198 516.501 881.581C510.065 883.19 502.332 880.916 495.882 880.916C474.777 880.916 455.558 881.631 435.354 877.59C425.672 875.654 414.296 872.438 406.088 866.283C404.85 865.354 396.385 856.697 394.781 858.301C394.18 858.901 399.887 868.284 400.767 868.943C404.28 871.578 423.581 878.067 428.703 878.92C432.124 879.49 435.188 879.585 438.68 879.585C439.788 879.585 443.114 879.585 442.005 879.585C436.095 879.585 429.179 880.552 423.382 879.585C422.899 879.505 414.07 878.245 414.07 878.92C414.07 879.912 415.81 879.882 416.73 880.25C423.639 883.014 431.478 882.376 438.68 883.576C456.523 886.55 475.426 886.695 493.221 882.246C498.415 880.948 506.41 879.829 511.845 880.916C513.168 881.18 515.836 881.581 515.836 881.581C515.836 881.581 512.711 881.836 511.18 881.581C506.966 880.878 502.82 879.633 498.542 878.92C487.795 877.129 478.124 872.336 467.946 868.943C464.215 867.699 460.553 866.27 456.639 865.617C454.835 865.317 449.489 864.287 451.317 864.287C453.499 864.287 456.037 866.304 457.969 866.948C465.618 869.498 474.654 869.613 482.579 870.273C485.751 870.538 488.663 870.938 491.891 870.938C493.679 870.938 498.811 870.804 497.212 871.604C493.039 873.69 468.641 863.911 461.96 862.957C460.824 862.795 452.648 861.948 452.648 860.296C452.648 859.305 454.336 859.16 455.308 858.966C464.777 857.072 477.03 862.755 486.57 863.622C489.168 863.858 491.934 863.622 494.552 863.622C494.995 863.622 496.195 863.935 495.882 863.622C491.194 858.934 476.763 859.175 470.607 857.636C467.076 856.753 467.546 856.971 463.955 856.971C463.29 856.971 461.365 856.673 461.96 856.971C471.907 861.944 485.785 862.262 496.547 864.952C497.614 865.219 516.501 869.313 516.501 868.278C516.501 866.694 503.263 862.313 501.203 861.627C499.924 861.2 496.259 860.008 497.212 860.961C501.073 864.822 527.413 870.122 533.13 870.938C534.961 871.2 543.574 873.231 545.102 870.938C547.441 867.43 524.103 862.957 521.157 862.957C520.661 862.957 522.044 863.4 522.487 863.622C525.435 865.096 527.925 865.569 531.134 866.283C537.149 867.619 543.026 869.06 549.093 870.273C551.31 870.717 555.745 871.604 555.745 871.604C555.745 871.604 552.632 870.294 551.089 869.608C546.7 867.658 542.196 866.606 537.786 864.952C536.012 864.287 534.262 863.556 532.465 862.957C532.044 862.817 530.691 862.957 531.134 862.957C544.391 862.957 559.686 868.366 573.038 870.273C573.265 870.306 584.294 872.165 583.015 869.608C580.494 864.566 565.882 863.645 561.066 862.957C560.407 862.863 559.07 862.292 559.07 862.957C559.07 863.658 560.378 863.484 561.066 863.622C568.581 865.125 577.486 870.581 585.676 868.943C586.162 868.846 586.849 868.748 587.006 868.278C587.521 866.734 571.646 860.941 569.712 860.296C569.047 860.075 567.717 860.332 567.717 859.631C567.717 859.31 578.81 859.823 578.359 861.627C577.59 864.702 564.03 869.38 561.066 871.604C559.7 872.628 535.885 877.273 533.795 876.925C530.269 876.337 525.402 874.7 521.822 875.594C516.055 877.036 510.429 878.775 504.529 880.25C500.116 881.354 492.264 883.576 487.9 883.576C485.905 883.576 483.909 883.576 481.914 883.576C480.805 883.576 477.48 883.576 478.588 883.576C485.239 883.576 491.314 887.441 498.542 886.237C511.729 884.039 525.216 882.246 538.451 882.246C545.138 882.246 552.108 883.015 558.405 880.916C561.335 879.939 567.052 877.59 567.052 877.59C567.052 877.59 564.857 878.255 563.726 878.255C560.73 878.255 557.603 878.92 554.414 878.92C546.876 878.92 539.338 878.92 531.799 878.92C525.26 878.92 519.571 877.059 513.176 876.26C496.952 874.232 480.09 873.628 463.955 870.938C450.883 868.76 437.442 865.474 424.712 862.292C421.374 861.457 418.072 860.465 414.735 859.631C414.305 859.524 413.404 860.075 413.404 859.631C413.404 855.572 436.669 860.931 432.694 852.98C428.998 845.588 420.617 853.338 416.73 854.31C413.026 855.236 406.978 851.537 404.092 852.98C402.929 853.561 401.081 855.991 400.102 856.971C398.627 858.445 392.785 859.019 392.785 861.627C392.785 863.972 398.693 865.539 400.102 866.948C407.843 874.689 411.963 873.444 422.716 875.594C423.851 875.821 429.324 878.343 430.033 876.925C432.644 871.703 420.056 867.984 420.056 864.287C420.056 862.643 421.921 862.957 422.716 862.957C428.024 862.957 451.885 871.068 453.978 868.278C457.743 863.258 438.015 858.301 438.015 858.301C438.015 858.301 444.717 858.903 447.992 859.631C449.596 859.988 456.708 862.887 457.969 861.627C459.258 860.337 445.504 852.142 444.001 853.645C443.441 854.205 446.542 855.581 446.661 855.64C450.988 857.804 455.475 859.278 459.964 860.961C469.344 864.479 479.902 868.181 489.896 869.608C494.996 870.337 502.461 867.717 507.189 869.608C507.65 869.792 508.076 870.495 507.854 870.938C507.645 871.357 502.428 870.938 501.868 870.938" fill="none" opacity="1" stroke="#f5891d" stroke-linecap="round" stroke-linejoin="round" stroke-width="13.4747"/>
<path d="M538.628 895.376C537.988 894.33 536.593 893.407 536 894C535.896 894.104 535.799 894.348 535.709 894.711" fill="none" opacity="1" stroke="#000000" stroke-linecap="round" stroke-linejoin="round" stroke-width="13.4747"/>
<path d="M527.5 899.5C527.635 899.23 539.82 912.008 542 914.5C548.04 921.403 555.053 927.553 561.5 934C563.368 935.868 566.263 937.508 568.5 939C569.5 939.667 572.35 941.85 571.5 941C569.903 939.403 567.886 937.757 566 936.5" fill="none" opacity="1" stroke="#000000" stroke-linecap="round" stroke-linejoin="round" stroke-width="13.4747"/>
<path d="M581 899.5C587.132 899.5 574.281 910.649 572 913.5C565.681 921.399 562.98 931.26 553.5 936C548.963 938.269 546.419 942.081 543.5 945C542.273 946.227 538.377 946.415 542 944" fill="none" opacity="1" stroke="#000000" stroke-linecap="round" stroke-linejoin="round" stroke-width="13.4747"/>
<path d="M420.5 900.5C425.195 898.152 445.542 922.553 449.5 927.5C450.484 928.73 458.423 933.732 458 935C457.624 936.129 452.611 932 458.5 932" fill="none" opacity="1" stroke="#000000" stroke-linecap="round" stroke-linejoin="round" stroke-width="13.4747"/>
<path d="M484.5 904C482.138 899.276 473.403 907.398 471 909C462.456 914.696 453.639 918.896 445.5 925C443.397 926.577 431.761 934.358 434 931" fill="none" opacity="1" stroke="#000000" stroke-linecap="round" stroke-linejoin="round" stroke-width="13.4747"/>
</g>
</svg>
